<?xml version="1.0" encoding="utf-8"?>
<!-- Generator: Adobe Illustrator 24.1.2, SVG Export Plug-In . SVG Version: 6.00 Build 0)  -->
<svg version="1.1" id="Layer_1" xmlns="http://www.w3.org/2000/svg" xmlns:xlink="http://www.w3.org/1999/xlink" x="0px" y="0px"
	 viewBox="0 0 500 500" style="enable-background:new 0 0 500 500;" xml:space="preserve">
<style type="text/css">
	.st0{fill:#FFFFFF;}
	.st1{fill:#FFFFFF;stroke:#000000;stroke-width:5;stroke-miterlimit:10;}
</style>
<rect x="121" y="118" class="st0" width="258" height="258"/>
<rect x="250" y="65" class="st0" width="187" height="182"/>
<g>
	<g>
		<path class="st0" d="M104.34,141.31c14.11,20.1,28.69,39.87,43.72,59.3c14.99,19.39,30.43,38.43,46.31,57.11
			c8.93,10.51,18,20.9,27.2,31.17c1.29,1.44,3.41-0.69,2.12-2.12c-16.3-18.2-32.18-36.77-47.63-55.7
			c-15.46-18.95-30.49-38.26-45.06-57.91c-8.17-11.02-16.19-22.14-24.07-33.36C105.83,138.23,103.23,139.73,104.34,141.31
			L104.34,141.31z"/>
	</g>
</g>
<rect x="157" y="137" class="st1" width="209" height="180"/>
</svg>
